<svg width="98" height="98" viewBox="0 0 98 98" fill="none" xmlns="http://www.w3.org/2000/svg">
<g clip-path="url(#clip0_26_145)">
<rect width="98" height="98" fill="#E01F1E"/>
<mask id="path-1-outside-1_26_145" maskUnits="userSpaceOnUse" x="26.364" y="22.0711" width="79.9031" height="79.9031" fill="black">
<rect fill="white" x="26.364" y="22.0711" width="79.9031" height="79.9031"/>
<path d="M52.6507 88.9811L52.3325 89.2993L32.286 88.3447L42.5037 98.5624L41.0364 100.03L27.6368 86.6299L28.008 86.2587L47.9661 87.3017L37.7837 77.1193L39.2863 75.6167L52.6507 88.9811ZM67.5706 73.4954L60.4642 80.6018L47.3827 67.5204L54.4891 60.4139L55.9033 61.8282L50.4056 67.3259L54.277 71.1973L59.7748 65.6996L61.1183 67.0431L55.5851 72.5762L60.6233 77.6143L66.1564 72.0812L67.5706 73.4954ZM85.2483 55.8178L78.1419 62.9242L65.0604 49.8427L72.1668 42.7363L73.581 44.1505L68.0833 49.6482L71.9547 53.5197L77.4524 48.0219L78.7959 49.3654L73.2628 54.8985L78.301 59.9367L83.8341 54.4035L85.2483 55.8178ZM92.3547 25.3061L88.5894 29.0714L100.292 40.7741L98.6656 42.4004L86.963 30.6978L83.1977 34.4631L81.8188 33.0843L90.9758 23.9272L92.3547 25.3061Z"/>
</mask>
<path d="M52.6507 88.9811L52.3325 89.2993L32.286 88.3447L42.5037 98.5624L41.0364 100.03L27.6368 86.6299L28.008 86.2587L47.9661 87.3017L37.7837 77.1193L39.2863 75.6167L52.6507 88.9811ZM67.5706 73.4954L60.4642 80.6018L47.3827 67.5204L54.4891 60.4139L55.9033 61.8282L50.4056 67.3259L54.277 71.1973L59.7748 65.6996L61.1183 67.0431L55.5851 72.5762L60.6233 77.6143L66.1564 72.0812L67.5706 73.4954ZM85.2483 55.8178L78.1419 62.9242L65.0604 49.8427L72.1668 42.7363L73.581 44.1505L68.0833 49.6482L71.9547 53.5197L77.4524 48.0219L78.7959 49.3654L73.2628 54.8985L78.301 59.9367L83.8341 54.4035L85.2483 55.8178ZM92.3547 25.3061L88.5894 29.0714L100.292 40.7741L98.6656 42.4004L86.963 30.6978L83.1977 34.4631L81.8188 33.0843L90.9758 23.9272L92.3547 25.3061Z" fill="white"/>
<path d="M52.6507 88.9811L53.1456 89.476L53.6406 88.9811L53.1456 88.4861L52.6507 88.9811ZM52.3325 89.2993L52.2992 89.9985L52.6085 90.0132L52.8274 89.7942L52.3325 89.2993ZM32.286 88.3447L32.3193 87.6455L30.5107 87.5593L31.791 88.8396L32.286 88.3447ZM42.5037 98.5624L42.9986 99.0573L43.4936 98.5624L42.9986 98.0674L42.5037 98.5624ZM41.0364 100.03L40.5415 100.525L41.0364 101.02L41.5314 100.525L41.0364 100.03ZM27.6368 86.6299L27.1418 86.135L26.6468 86.6299L27.1418 87.1249L27.6368 86.6299ZM28.008 86.2587L28.0445 85.5597L27.7333 85.5434L27.513 85.7637L28.008 86.2587ZM47.9661 87.3017L47.9295 88.0007L49.7502 88.0959L48.461 86.8067L47.9661 87.3017ZM37.7837 77.1193L37.2888 76.6244L36.7938 77.1193L37.2888 77.6143L37.7837 77.1193ZM39.2863 75.6167L39.7813 75.1218L39.2863 74.6268L38.7914 75.1218L39.2863 75.6167ZM52.6507 88.9811L52.1557 88.4861L51.8375 88.8043L52.3325 89.2993L52.8274 89.7942L53.1456 89.476L52.6507 88.9811ZM52.3325 89.2993L52.3658 88.6001L32.3193 87.6455L32.286 88.3447L32.2527 89.0439L52.2992 89.9985L52.3325 89.2993ZM32.286 88.3447L31.791 88.8396L42.0087 99.0573L42.5037 98.5624L42.9986 98.0674L32.781 87.8497L32.286 88.3447ZM42.5037 98.5624L42.0087 98.0674L40.5415 99.5346L41.0364 100.03L41.5314 100.525L42.9986 99.0573L42.5037 98.5624ZM41.0364 100.03L41.5314 99.5346L28.1317 86.135L27.6368 86.6299L27.1418 87.1249L40.5415 100.525L41.0364 100.03ZM27.6368 86.6299L28.1317 87.1249L28.503 86.7537L28.008 86.2587L27.513 85.7637L27.1418 86.135L27.6368 86.6299ZM28.008 86.2587L27.9715 86.9577L47.9295 88.0007L47.9661 87.3017L48.0026 86.6026L28.0445 85.5597L28.008 86.2587ZM47.9661 87.3017L48.461 86.8067L38.2787 76.6244L37.7837 77.1193L37.2888 77.6143L47.4711 87.7967L47.9661 87.3017ZM37.7837 77.1193L38.2787 77.6143L39.7813 76.1117L39.2863 75.6167L38.7914 75.1218L37.2888 76.6244L37.7837 77.1193ZM39.2863 75.6167L38.7914 76.1117L52.1557 89.476L52.6507 88.9811L53.1456 88.4861L39.7813 75.1218L39.2863 75.6167ZM67.5706 73.4954L68.0656 73.9904L68.5606 73.4954L68.0656 73.0004L67.5706 73.4954ZM60.4642 80.6018L59.9692 81.0968L60.4642 81.5918L60.9592 81.0968L60.4642 80.6018ZM47.3827 67.5204L46.8877 67.0254L46.3928 67.5204L46.8877 68.0153L47.3827 67.5204ZM54.4891 60.4139L54.9841 59.919L54.4891 59.424L53.9942 59.919L54.4891 60.4139ZM55.9033 61.8282L56.3983 62.3231L56.8933 61.8282L56.3983 61.3332L55.9033 61.8282ZM50.4056 67.3259L49.9106 66.8309L49.4156 67.3259L49.9106 67.8209L50.4056 67.3259ZM54.277 71.1973L53.782 71.6923L54.277 72.1873L54.772 71.6923L54.277 71.1973ZM59.7748 65.6996L60.2697 65.2046L59.7748 64.7096L59.2798 65.2046L59.7748 65.6996ZM61.1183 67.0431L61.6132 67.538L62.1082 67.0431L61.6132 66.5481L61.1183 67.0431ZM55.5851 72.5762L55.0902 72.0812L54.5952 72.5762L55.0902 73.0712L55.5851 72.5762ZM60.6233 77.6143L60.1283 78.1093L60.6233 78.6043L61.1183 78.1093L60.6233 77.6143ZM66.1564 72.0812L66.6514 71.5862L66.1564 71.0913L65.6614 71.5862L66.1564 72.0812ZM67.5706 73.4954L67.0756 73.0004L59.9692 80.1069L60.4642 80.6018L60.9592 81.0968L68.0656 73.9904L67.5706 73.4954ZM60.4642 80.6018L60.9592 80.1069L47.8777 67.0254L47.3827 67.5204L46.8877 68.0153L59.9692 81.0968L60.4642 80.6018ZM47.3827 67.5204L47.8777 68.0153L54.9841 60.9089L54.4891 60.4139L53.9942 59.919L46.8877 67.0254L47.3827 67.5204ZM54.4891 60.4139L53.9942 60.9089L55.4084 62.3231L55.9033 61.8282L56.3983 61.3332L54.9841 59.919L54.4891 60.4139ZM55.9033 61.8282L55.4084 61.3332L49.9106 66.8309L50.4056 67.3259L50.9006 67.8209L56.3983 62.3231L55.9033 61.8282ZM50.4056 67.3259L49.9106 67.8209L53.782 71.6923L54.277 71.1973L54.772 70.7024L50.9006 66.8309L50.4056 67.3259ZM54.277 71.1973L54.772 71.6923L60.2697 66.1945L59.7748 65.6996L59.2798 65.2046L53.782 70.7024L54.277 71.1973ZM59.7748 65.6996L59.2798 66.1945L60.6233 67.538L61.1183 67.0431L61.6132 66.5481L60.2697 65.2046L59.7748 65.6996ZM61.1183 67.0431L60.6233 66.5481L55.0902 72.0812L55.5851 72.5762L56.0801 73.0712L61.6132 67.538L61.1183 67.0431ZM55.5851 72.5762L55.0902 73.0712L60.1283 78.1093L60.6233 77.6143L61.1183 77.1193L56.0801 72.0812L55.5851 72.5762ZM60.6233 77.6143L61.1183 78.1093L66.6514 72.5762L66.1564 72.0812L65.6614 71.5862L60.1283 77.1193L60.6233 77.6143ZM66.1564 72.0812L65.6614 72.5762L67.0756 73.9904L67.5706 73.4954L68.0656 73.0004L66.6514 71.5862L66.1564 72.0812ZM85.2483 55.8178L85.7433 56.3127L86.2382 55.8178L85.7433 55.3228L85.2483 55.8178ZM78.1419 62.9242L77.6469 63.4192L78.1419 63.9141L78.6368 63.4192L78.1419 62.9242ZM65.0604 49.8427L64.5654 49.3477L64.0704 49.8427L64.5654 50.3377L65.0604 49.8427ZM72.1668 42.7363L72.6618 42.2413L72.1668 41.7463L71.6718 42.2413L72.1668 42.7363ZM73.581 44.1505L74.076 44.6455L74.571 44.1505L74.076 43.6555L73.581 44.1505ZM68.0833 49.6482L67.5883 49.1533L67.0933 49.6482L67.5883 50.1432L68.0833 49.6482ZM71.9547 53.5197L71.4597 54.0146L71.9547 54.5096L72.4496 54.0146L71.9547 53.5197ZM77.4524 48.0219L77.9474 47.5269L77.4524 47.032L76.9575 47.5269L77.4524 48.0219ZM78.7959 49.3654L79.2909 49.8604L79.7859 49.3654L79.2909 48.8704L78.7959 49.3654ZM73.2628 54.8985L72.7678 54.4035L72.2729 54.8985L72.7678 55.3935L73.2628 54.8985ZM78.301 59.9367L77.806 60.4316L78.301 60.9266L78.7959 60.4316L78.301 59.9367ZM83.8341 54.4035L84.329 53.9086L83.8341 53.4136L83.3391 53.9086L83.8341 54.4035ZM85.2483 55.8178L84.7533 55.3228L77.6469 62.4292L78.1419 62.9242L78.6368 63.4192L85.7433 56.3127L85.2483 55.8178ZM78.1419 62.9242L78.6368 62.4292L65.5554 49.3477L65.0604 49.8427L64.5654 50.3377L77.6469 63.4192L78.1419 62.9242ZM65.0604 49.8427L65.5554 50.3377L72.6618 43.2313L72.1668 42.7363L71.6718 42.2413L64.5654 49.3477L65.0604 49.8427ZM72.1668 42.7363L71.6718 43.2313L73.086 44.6455L73.581 44.1505L74.076 43.6555L72.6618 42.2413L72.1668 42.7363ZM73.581 44.1505L73.086 43.6555L67.5883 49.1533L68.0833 49.6482L68.5782 50.1432L74.076 44.6455L73.581 44.1505ZM68.0833 49.6482L67.5883 50.1432L71.4597 54.0146L71.9547 53.5197L72.4496 53.0247L68.5782 49.1533L68.0833 49.6482ZM71.9547 53.5197L72.4496 54.0146L77.9474 48.5169L77.4524 48.0219L76.9575 47.5269L71.4597 53.0247L71.9547 53.5197ZM77.4524 48.0219L76.9575 48.5169L78.301 49.8604L78.7959 49.3654L79.2909 48.8704L77.9474 47.5269L77.4524 48.0219ZM78.7959 49.3654L78.301 48.8704L72.7678 54.4035L73.2628 54.8985L73.7578 55.3935L79.2909 49.8604L78.7959 49.3654ZM73.2628 54.8985L72.7678 55.3935L77.806 60.4316L78.301 59.9367L78.7959 59.4417L73.7578 54.4035L73.2628 54.8985ZM78.301 59.9367L78.7959 60.4316L84.329 54.8985L83.8341 54.4035L83.3391 53.9086L77.806 59.4417L78.301 59.9367ZM83.8341 54.4035L83.3391 54.8985L84.7533 56.3127L85.2483 55.8178L85.7433 55.3228L84.329 53.9086L83.8341 54.4035ZM92.3547 25.3061L92.8497 25.8011L93.3446 25.3061L92.8497 24.8111L92.3547 25.3061ZM88.5894 29.0714L88.0944 28.5765L87.5994 29.0714L88.0944 29.5664L88.5894 29.0714ZM100.292 40.7741L100.787 41.269L101.282 40.7741L100.787 40.2791L100.292 40.7741ZM98.6656 42.4004L98.1707 42.8954L98.6656 43.3904L99.1606 42.8954L98.6656 42.4004ZM86.963 30.6978L87.458 30.2028L86.963 29.7078L86.468 30.2028L86.963 30.6978ZM83.1977 34.4631L82.7027 34.9581L83.1977 35.4531L83.6926 34.9581L83.1977 34.4631ZM81.8188 33.0843L81.3238 32.5893L80.8289 33.0843L81.3238 33.5792L81.8188 33.0843ZM90.9758 23.9272L91.4708 23.4323L90.9758 22.9373L90.4809 23.4323L90.9758 23.9272ZM92.3547 25.3061L91.8597 24.8111L88.0944 28.5765L88.5894 29.0714L89.0843 29.5664L92.8497 25.8011L92.3547 25.3061ZM88.5894 29.0714L88.0944 29.5664L99.797 41.269L100.292 40.7741L100.787 40.2791L89.0843 28.5765L88.5894 29.0714ZM100.292 40.7741L99.797 40.2791L98.1707 41.9054L98.6656 42.4004L99.1606 42.8954L100.787 41.269L100.292 40.7741ZM98.6656 42.4004L99.1606 41.9054L87.458 30.2028L86.963 30.6978L86.468 31.1928L98.1707 42.8954L98.6656 42.4004ZM86.963 30.6978L86.468 30.2028L82.7027 33.9682L83.1977 34.4631L83.6926 34.9581L87.458 31.1928L86.963 30.6978ZM83.1977 34.4631L83.6926 33.9682L82.3138 32.5893L81.8188 33.0843L81.3238 33.5792L82.7027 34.9581L83.1977 34.4631ZM81.8188 33.0843L82.3138 33.5792L91.4708 24.4222L90.9758 23.9272L90.4809 23.4323L81.3238 32.5893L81.8188 33.0843ZM90.9758 23.9272L90.4809 24.4222L91.8597 25.8011L92.3547 25.3061L92.8497 24.8111L91.4708 23.4323L90.9758 23.9272Z" fill="white" mask="url(#path-1-outside-1_26_145)"/>
<mask id="path-3-outside-2_26_145" maskUnits="userSpaceOnUse" x="-2.17157" y="66.1213" width="33.9411" height="33.9411" fill="black">
<rect fill="white" x="-2.17157" y="66.1213" width="33.9411" height="33.9411"/>
<path d="M9.89167 94.3165C9.7691 94.6719 9.62203 95.0028 9.45043 95.3093C9.27884 95.6157 9.07661 95.8853 8.84374 96.1182L6.26987 98.6921L-0.532499 91.8897L2.3631 88.9941C3.31298 88.2158 4.3793 87.9155 5.56205 88.0932C6.73868 88.2648 7.7621 88.7857 8.63231 89.6559C9.27578 90.2994 9.72008 91.0256 9.96521 91.8345C10.2103 92.6435 10.1858 93.4708 9.89167 94.3165ZM7.22588 90.0512C6.64369 89.5671 5.96345 89.3036 5.18517 89.2607C4.41301 89.2116 3.70519 89.3924 3.06172 89.803L1.02101 91.8437L6.33421 97.1569L8.08996 95.4012C8.78245 94.7087 9.05823 93.8814 8.91728 92.9192C8.77633 91.9571 8.35348 91.1237 7.64873 90.4189C7.5139 90.2841 7.37295 90.1615 7.22588 90.0512ZM19.7367 85.2252L16.0414 88.9205L9.23901 82.1182L12.9343 78.4228L13.6697 79.1582L10.8109 82.0171L12.824 84.0302L15.6829 81.1714L16.3815 81.87L13.5043 84.7472L16.1241 87.367L19.0013 84.4898L19.7367 85.2252ZM23.2114 68.1458L27.394 77.9908L27.1458 78.239L17.3191 74.0381L18.2567 73.1004L25.868 76.6487L22.3014 69.0558L23.2114 68.1458Z"/>
</mask>
<path d="M9.89167 94.3165C9.7691 94.6719 9.62203 95.0028 9.45043 95.3093C9.27884 95.6157 9.07661 95.8853 8.84374 96.1182L6.26987 98.6921L-0.532499 91.8897L2.3631 88.9941C3.31298 88.2158 4.3793 87.9155 5.56205 88.0932C6.73868 88.2648 7.7621 88.7857 8.63231 89.6559C9.27578 90.2994 9.72008 91.0256 9.96521 91.8345C10.2103 92.6435 10.1858 93.4708 9.89167 94.3165ZM7.22588 90.0512C6.64369 89.5671 5.96345 89.3036 5.18517 89.2607C4.41301 89.2116 3.70519 89.3924 3.06172 89.803L1.02101 91.8437L6.33421 97.1569L8.08996 95.4012C8.78245 94.7087 9.05823 93.8814 8.91728 92.9192C8.77633 91.9571 8.35348 91.1237 7.64873 90.4189C7.5139 90.2841 7.37295 90.1615 7.22588 90.0512ZM19.7367 85.2252L16.0414 88.9205L9.23901 82.1182L12.9343 78.4228L13.6697 79.1582L10.8109 82.0171L12.824 84.0302L15.6829 81.1714L16.3815 81.87L13.5043 84.7472L16.1241 87.367L19.0013 84.4898L19.7367 85.2252ZM23.2114 68.1458L27.394 77.9908L27.1458 78.239L17.3191 74.0381L18.2567 73.1004L25.868 76.6487L22.3014 69.0558L23.2114 68.1458Z" fill="white"/>
<path d="M9.89167 94.3165L9.23052 94.0865L9.22991 94.0883L9.89167 94.3165ZM9.45043 95.3093L8.83968 94.9672L8.83968 94.9672L9.45043 95.3093ZM6.26987 98.6921L5.77489 99.187L6.26987 99.682L6.76484 99.187L6.26987 98.6921ZM-0.532499 91.8897L-1.02747 91.3947L-1.52245 91.8897L-1.02747 92.3847L-0.532499 91.8897ZM2.3631 88.9941L1.91946 88.4526L1.89264 88.4746L1.86813 88.4991L2.3631 88.9941ZM5.56205 88.0932L5.45804 88.7855L5.46104 88.7859L5.56205 88.0932ZM9.96521 91.8345L10.6351 91.6315L10.6351 91.6315L9.96521 91.8345ZM7.22588 90.0512L6.7783 90.5894L6.79182 90.6007L6.80588 90.6112L7.22588 90.0512ZM5.18517 89.2607L5.14081 89.9593L5.14664 89.9596L5.18517 89.2607ZM3.06172 89.803L2.68518 89.2129L2.62078 89.254L2.56675 89.308L3.06172 89.803ZM1.02101 91.8437L0.526039 91.3488L0.0310644 91.8437L0.526039 92.3387L1.02101 91.8437ZM6.33421 97.1569L5.83924 97.6519L6.33421 98.1469L6.82919 97.6519L6.33421 97.1569ZM8.91728 92.9192L8.22467 93.0207L8.22467 93.0207L8.91728 92.9192ZM9.89167 94.3165L9.22991 94.0883C9.11998 94.4071 8.98954 94.6996 8.83968 94.9672L9.45043 95.3093L10.0612 95.6513C10.2545 95.3061 10.4182 94.9367 10.5534 94.5447L9.89167 94.3165ZM9.45043 95.3093L8.83968 94.9672C8.6974 95.2213 8.53329 95.4387 8.34876 95.6232L8.84374 96.1182L9.33871 96.6132C9.61993 96.3319 9.86028 96.01 10.0612 95.6513L9.45043 95.3093ZM8.84374 96.1182L8.34876 95.6232L5.77489 98.1971L6.26987 98.6921L6.76484 99.187L9.33871 96.6132L8.84374 96.1182ZM6.26987 98.6921L6.76484 98.1971L-0.0375247 91.3947L-0.532499 91.8897L-1.02747 92.3847L5.77489 99.187L6.26987 98.6921ZM-0.532499 91.8897L-0.0375247 92.3847L2.85808 89.4891L2.3631 88.9941L1.86813 88.4991L-1.02747 91.3947L-0.532499 91.8897ZM2.3631 88.9941L2.80675 89.5355C3.60824 88.8788 4.47682 88.638 5.45804 88.7855L5.56205 88.0932L5.66607 87.401C4.28178 87.193 3.01772 87.5528 1.91946 88.4526L2.3631 88.9941ZM5.56205 88.0932L5.46104 88.7859C6.48298 88.9349 7.36973 89.3833 8.13734 90.1509L8.63231 89.6559L9.12729 89.161C8.15447 88.1881 6.99438 87.5947 5.66307 87.4006L5.56205 88.0932ZM8.63231 89.6559L8.13734 90.1509C8.70576 90.7193 9.0861 91.3472 9.29529 92.0375L9.96521 91.8345L10.6351 91.6315C10.3541 90.704 9.84579 89.8795 9.12729 89.161L8.63231 89.6559ZM9.96521 91.8345L9.29529 92.0375C9.49488 92.6962 9.47913 93.3718 9.23052 94.0865L9.89167 94.3165L10.5528 94.5464C10.8925 93.5698 10.9258 92.5908 10.6351 91.6315L9.96521 91.8345ZM7.22588 90.0512L7.67345 89.513C6.9721 88.9298 6.1473 88.6126 5.22369 88.5617L5.18517 89.2607L5.14664 89.9596C5.7796 89.9945 6.31528 90.2044 6.7783 90.5894L7.22588 90.0512ZM5.18517 89.2607L5.22952 88.5621C4.31128 88.5038 3.45571 88.7212 2.68518 89.2129L3.06172 89.803L3.43826 90.3931C3.95467 90.0636 4.51473 89.9195 5.14081 89.9593L5.18517 89.2607ZM3.06172 89.803L2.56675 89.308L0.526039 91.3488L1.02101 91.8437L1.51599 92.3387L3.5567 90.298L3.06172 89.803ZM1.02101 91.8437L0.526039 92.3387L5.83924 97.6519L6.33421 97.1569L6.82919 96.662L1.51599 91.3488L1.02101 91.8437ZM6.33421 97.1569L6.82919 97.6519L8.58494 95.8962L8.08996 95.4012L7.59499 94.9062L5.83924 96.662L6.33421 97.1569ZM8.08996 95.4012L8.58494 95.8962C9.43253 95.0486 9.78317 94.0006 9.60988 92.8178L8.91728 92.9192L8.22467 93.0207C8.33328 93.7621 8.13238 94.3688 7.59499 94.9062L8.08996 95.4012ZM8.91728 92.9192L9.60988 92.8178C9.44652 91.7027 8.95209 90.7323 8.1437 89.9239L7.64873 90.4189L7.15375 90.9139C7.75486 91.515 8.10613 92.2115 8.22467 93.0207L8.91728 92.9192ZM7.64873 90.4189L8.1437 89.9239C7.98632 89.7666 7.82041 89.6221 7.64588 89.4912L7.22588 90.0512L6.80588 90.6112C6.9255 90.7009 7.04149 90.8016 7.15375 90.9139L7.64873 90.4189ZM19.7367 85.2252L20.2317 85.7202L20.7267 85.2252L20.2317 84.7302L19.7367 85.2252ZM16.0414 88.9205L15.5464 89.4155L16.0414 89.9105L16.5364 89.4155L16.0414 88.9205ZM9.23901 82.1182L8.74403 81.6232L8.24906 82.1182L8.74403 82.6132L9.23901 82.1182ZM12.9343 78.4228L13.4293 77.9279L12.9343 77.4329L12.4394 77.9279L12.9343 78.4228ZM13.6697 79.1582L14.1647 79.6532L14.6597 79.1582L14.1647 78.6633L13.6697 79.1582ZM10.8109 82.0171L10.3159 81.5221L9.82096 82.0171L10.3159 82.512L10.8109 82.0171ZM12.824 84.0302L12.3291 84.5252L12.824 85.0201L13.319 84.5252L12.824 84.0302ZM15.6829 81.1714L16.1778 80.6764L15.6829 80.1814L15.1879 80.6764L15.6829 81.1714ZM16.3815 81.87L16.8765 82.365L17.3714 81.87L16.8765 81.375L16.3815 81.87ZM13.5043 84.7472L13.0093 84.2522L12.5143 84.7472L13.0093 85.2422L13.5043 84.7472ZM16.1241 87.367L15.6291 87.862L16.1241 88.357L16.6191 87.862L16.1241 87.367ZM19.0013 84.4898L19.4963 83.9948L19.0013 83.4999L18.5064 83.9948L19.0013 84.4898ZM19.7367 85.2252L19.2417 84.7302L15.5464 88.4256L16.0414 88.9205L16.5364 89.4155L20.2317 85.7202L19.7367 85.2252ZM16.0414 88.9205L16.5364 88.4256L9.73398 81.6232L9.23901 82.1182L8.74403 82.6132L15.5464 89.4155L16.0414 88.9205ZM9.23901 82.1182L9.73398 82.6132L13.4293 78.9178L12.9343 78.4228L12.4394 77.9279L8.74403 81.6232L9.23901 82.1182ZM12.9343 78.4228L12.4394 78.9178L13.1748 79.6532L13.6697 79.1582L14.1647 78.6633L13.4293 77.9279L12.9343 78.4228ZM13.6697 79.1582L13.1748 78.6633L10.3159 81.5221L10.8109 82.0171L11.3059 82.512L14.1647 79.6532L13.6697 79.1582ZM10.8109 82.0171L10.3159 82.512L12.3291 84.5252L12.824 84.0302L13.319 83.5352L11.3059 81.5221L10.8109 82.0171ZM12.824 84.0302L13.319 84.5252L16.1778 81.6663L15.6829 81.1714L15.1879 80.6764L12.3291 83.5352L12.824 84.0302ZM15.6829 81.1714L15.1879 81.6663L15.8865 82.365L16.3815 81.87L16.8765 81.375L16.1778 80.6764L15.6829 81.1714ZM16.3815 81.87L15.8865 81.375L13.0093 84.2522L13.5043 84.7472L13.9993 85.2422L16.8765 82.365L16.3815 81.87ZM13.5043 84.7472L13.0093 85.2422L15.6291 87.862L16.1241 87.367L16.6191 86.8721L13.9993 84.2522L13.5043 84.7472ZM16.1241 87.367L16.6191 87.862L19.4963 84.9848L19.0013 84.4898L18.5064 83.9948L15.6291 86.8721L16.1241 87.367ZM19.0013 84.4898L18.5064 84.9848L19.2417 85.7202L19.7367 85.2252L20.2317 84.7302L19.4963 83.9948L19.0013 84.4898ZM23.2114 68.1458L23.8557 67.872L23.4501 66.9172L22.7165 67.6508L23.2114 68.1458ZM27.394 77.9908L27.889 78.4858L28.2229 78.1518L28.0382 77.7171L27.394 77.9908ZM27.1458 78.239L26.8706 78.8826L27.306 79.0688L27.6408 78.734L27.1458 78.239ZM17.3191 74.0381L16.8241 73.5431L16.0923 74.2749L17.044 74.6817L17.3191 74.0381ZM18.2567 73.1004L18.5525 72.466L18.1083 72.2589L17.7618 72.6055L18.2567 73.1004ZM25.868 76.6487L25.5723 77.2832L27.3228 78.0992L26.5016 76.3511L25.868 76.6487ZM22.3014 69.0558L21.8064 68.5608L21.4588 68.9084L21.6678 69.3534L22.3014 69.0558ZM23.2114 68.1458L22.5672 68.4195L26.7497 78.2645L27.394 77.9908L28.0382 77.7171L23.8557 67.872L23.2114 68.1458ZM27.394 77.9908L26.899 77.4958L26.6508 77.744L27.1458 78.239L27.6408 78.734L27.889 78.4858L27.394 77.9908ZM27.1458 78.239L27.4209 77.5953L17.5943 73.3944L17.3191 74.0381L17.044 74.6817L26.8706 78.8826L27.1458 78.239ZM17.3191 74.0381L17.8141 74.533L18.7517 73.5954L18.2567 73.1004L17.7618 72.6055L16.8241 73.5431L17.3191 74.0381ZM18.2567 73.1004L17.961 73.7349L25.5723 77.2832L25.868 76.6487L26.1638 76.0143L18.5525 72.466L18.2567 73.1004ZM25.868 76.6487L26.5016 76.3511L22.935 68.7582L22.3014 69.0558L21.6678 69.3534L25.2345 76.9463L25.868 76.6487ZM22.3014 69.0558L22.7964 69.5508L23.7064 68.6407L23.2114 68.1458L22.7165 67.6508L21.8064 68.5608L22.3014 69.0558Z" fill="white" mask="url(#path-3-outside-2_26_145)"/>
</g>
<defs>
<clipPath id="clip0_26_145">
<rect width="98" height="98" fill="white"/>
</clipPath>
</defs>
</svg>
