<svg width="98" height="98" viewBox="0 0 98 98" fill="none" xmlns="http://www.w3.org/2000/svg">
<rect width="98" height="98" fill="#E01F1E"/>
<mask id="path-1-outside-1_25_101" maskUnits="userSpaceOnUse" x="6" y="74" width="71" height="18" fill="black">
<rect fill="white" x="6" y="74" width="71" height="18"/>
<path d="M19.789 90.304H19.447L9.187 79.018V90H7.61V75.598H8.009L18.174 86.884V75.94H19.789V90.304ZM36.129 90H28.491V75.94H36.129V77.46H30.22V81.621H36.129V83.065H30.182V88.48H36.129V90ZM55.129 90H47.491V75.94H55.129V77.46H49.22V81.621H55.129V83.065H49.182V88.48H55.129V90ZM75.345 77.422H71.298V90H69.55V77.422H65.503V75.94H75.345V77.422Z"/>
</mask>
<path d="M19.789 90.304H19.447L9.187 79.018V90H7.61V75.598H8.009L18.174 86.884V75.94H19.789V90.304ZM36.129 90H28.491V75.94H36.129V77.46H30.22V81.621H36.129V83.065H30.182V88.48H36.129V90ZM55.129 90H47.491V75.94H55.129V77.46H49.22V81.621H55.129V83.065H49.182V88.48H55.129V90ZM75.345 77.422H71.298V90H69.55V77.422H65.503V75.94H75.345V77.422Z" fill="white"/>
<path d="M19.789 90.304V91.004H20.489V90.304H19.789ZM19.447 90.304L18.929 90.7749L19.1373 91.004H19.447V90.304ZM9.187 79.018L9.70496 78.5471L8.487 77.2074V79.018H9.187ZM9.187 90V90.7H9.887V90H9.187ZM7.61 90H6.91V90.7H7.61V90ZM7.61 75.598V74.898H6.91V75.598H7.61ZM8.009 75.598L8.52913 75.1295L8.3206 74.898H8.009V75.598ZM18.174 86.884L17.6539 87.3525L18.874 88.7072V86.884H18.174ZM18.174 75.94V75.24H17.474V75.94H18.174ZM19.789 75.94H20.489V75.24H19.789V75.94ZM19.789 90.304V89.604H19.447V90.304V91.004H19.789V90.304ZM19.447 90.304L19.965 89.8331L9.70496 78.5471L9.187 79.018L8.66904 79.4889L18.929 90.7749L19.447 90.304ZM9.187 79.018H8.487V90H9.187H9.887V79.018H9.187ZM9.187 90V89.3H7.61V90V90.7H9.187V90ZM7.61 90H8.31V75.598H7.61H6.91V90H7.61ZM7.61 75.598V76.298H8.009V75.598V74.898H7.61V75.598ZM8.009 75.598L7.48887 76.0665L17.6539 87.3525L18.174 86.884L18.6941 86.4155L8.52913 75.1295L8.009 75.598ZM18.174 86.884H18.874V75.94H18.174H17.474V86.884H18.174ZM18.174 75.94V76.64H19.789V75.94V75.24H18.174V75.94ZM19.789 75.94H19.089V90.304H19.789H20.489V75.94H19.789ZM36.129 90V90.7H36.829V90H36.129ZM28.491 90H27.791V90.7H28.491V90ZM28.491 75.94V75.24H27.791V75.94H28.491ZM36.129 75.94H36.829V75.24H36.129V75.94ZM36.129 77.46V78.16H36.829V77.46H36.129ZM30.22 77.46V76.76H29.52V77.46H30.22ZM30.22 81.621H29.52V82.321H30.22V81.621ZM36.129 81.621H36.829V80.921H36.129V81.621ZM36.129 83.065V83.765H36.829V83.065H36.129ZM30.182 83.065V82.365H29.482V83.065H30.182ZM30.182 88.48H29.482V89.18H30.182V88.48ZM36.129 88.48H36.829V87.78H36.129V88.48ZM36.129 90V89.3H28.491V90V90.7H36.129V90ZM28.491 90H29.191V75.94H28.491H27.791V90H28.491ZM28.491 75.94V76.64H36.129V75.94V75.24H28.491V75.94ZM36.129 75.94H35.429V77.46H36.129H36.829V75.94H36.129ZM36.129 77.46V76.76H30.22V77.46V78.16H36.129V77.46ZM30.22 77.46H29.52V81.621H30.22H30.92V77.46H30.22ZM30.22 81.621V82.321H36.129V81.621V80.921H30.22V81.621ZM36.129 81.621H35.429V83.065H36.129H36.829V81.621H36.129ZM36.129 83.065V82.365H30.182V83.065V83.765H36.129V83.065ZM30.182 83.065H29.482V88.48H30.182H30.882V83.065H30.182ZM30.182 88.48V89.18H36.129V88.48V87.78H30.182V88.48ZM36.129 88.48H35.429V90H36.129H36.829V88.48H36.129ZM55.129 90V90.7H55.829V90H55.129ZM47.491 90H46.791V90.7H47.491V90ZM47.491 75.94V75.24H46.791V75.94H47.491ZM55.129 75.94H55.829V75.24H55.129V75.94ZM55.129 77.46V78.16H55.829V77.46H55.129ZM49.22 77.46V76.76H48.52V77.46H49.22ZM49.22 81.621H48.52V82.321H49.22V81.621ZM55.129 81.621H55.829V80.921H55.129V81.621ZM55.129 83.065V83.765H55.829V83.065H55.129ZM49.182 83.065V82.365H48.482V83.065H49.182ZM49.182 88.48H48.482V89.18H49.182V88.48ZM55.129 88.48H55.829V87.78H55.129V88.48ZM55.129 90V89.3H47.491V90V90.7H55.129V90ZM47.491 90H48.191V75.94H47.491H46.791V90H47.491ZM47.491 75.94V76.64H55.129V75.94V75.24H47.491V75.94ZM55.129 75.94H54.429V77.46H55.129H55.829V75.94H55.129ZM55.129 77.46V76.76H49.22V77.46V78.16H55.129V77.46ZM49.22 77.46H48.52V81.621H49.22H49.92V77.46H49.22ZM49.22 81.621V82.321H55.129V81.621V80.921H49.22V81.621ZM55.129 81.621H54.429V83.065H55.129H55.829V81.621H55.129ZM55.129 83.065V82.365H49.182V83.065V83.765H55.129V83.065ZM49.182 83.065H48.482V88.48H49.182H49.882V83.065H49.182ZM49.182 88.48V89.18H55.129V88.48V87.78H49.182V88.48ZM55.129 88.48H54.429V90H55.129H55.829V88.48H55.129ZM75.345 77.422V78.122H76.045V77.422H75.345ZM71.298 77.422V76.722H70.598V77.422H71.298ZM71.298 90V90.7H71.998V90H71.298ZM69.55 90H68.85V90.7H69.55V90ZM69.55 77.422H70.25V76.722H69.55V77.422ZM65.503 77.422H64.803V78.122H65.503V77.422ZM65.503 75.94V75.24H64.803V75.94H65.503ZM75.345 75.94H76.045V75.24H75.345V75.94ZM75.345 77.422V76.722H71.298V77.422V78.122H75.345V77.422ZM71.298 77.422H70.598V90H71.298H71.998V77.422H71.298ZM71.298 90V89.3H69.55V90V90.7H71.298V90ZM69.55 90H70.25V77.422H69.55H68.85V90H69.55ZM69.55 77.422V76.722H65.503V77.422V78.122H69.55V77.422ZM65.503 77.422H66.203V75.94H65.503H64.803V77.422H65.503ZM65.503 75.94V76.64H75.345V75.94V75.24H65.503V75.94ZM75.345 75.94H74.645V77.422H75.345H76.045V75.94H75.345Z" fill="white" mask="url(#path-1-outside-1_25_101)"/>
<mask id="path-3-outside-2_25_101" maskUnits="userSpaceOnUse" x="7" y="57" width="33" height="11" fill="black">
<rect fill="white" x="7" y="57" width="33" height="11"/>
<path d="M12.932 66.508C12.62 66.66 12.308 66.78 11.996 66.868C11.684 66.956 11.376 67 11.072 67H7.712V58.12H11.492C12.62 58.232 13.512 58.732 14.168 59.62C14.824 60.5 15.152 61.508 15.152 62.644C15.152 63.484 14.968 64.248 14.6 64.936C14.232 65.624 13.676 66.148 12.932 66.508ZM13.976 61.984C13.912 61.288 13.64 60.672 13.16 60.136C12.688 59.6 12.108 59.256 11.42 59.104H8.756V66.04H11.048C11.952 66.04 12.672 65.68 13.208 64.96C13.744 64.24 14.012 63.42 14.012 62.5C14.012 62.324 14 62.152 13.976 61.984ZM25.292 67H20.468V58.12H25.292V59.08H21.56V61.708H25.292V62.62H21.536V66.04H25.292V67ZM38.708 58.12L35.012 67.276H34.688L31.016 58.12H32.24L34.892 65.404L37.52 58.12H38.708Z"/>
</mask>
<path d="M12.932 66.508C12.62 66.66 12.308 66.78 11.996 66.868C11.684 66.956 11.376 67 11.072 67H7.712V58.12H11.492C12.62 58.232 13.512 58.732 14.168 59.62C14.824 60.5 15.152 61.508 15.152 62.644C15.152 63.484 14.968 64.248 14.6 64.936C14.232 65.624 13.676 66.148 12.932 66.508ZM13.976 61.984C13.912 61.288 13.64 60.672 13.16 60.136C12.688 59.6 12.108 59.256 11.42 59.104H8.756V66.04H11.048C11.952 66.04 12.672 65.68 13.208 64.96C13.744 64.24 14.012 63.42 14.012 62.5C14.012 62.324 14 62.152 13.976 61.984ZM25.292 67H20.468V58.12H25.292V59.08H21.56V61.708H25.292V62.62H21.536V66.04H25.292V67ZM38.708 58.12L35.012 67.276H34.688L31.016 58.12H32.24L34.892 65.404L37.52 58.12H38.708Z" fill="white"/>
<path d="M12.932 66.508L12.6271 65.8779L12.6254 65.8787L12.932 66.508ZM11.996 66.868L11.806 66.1943H11.806L11.996 66.868ZM7.712 67H7.012V67.7H7.712V67ZM7.712 58.12V57.42H7.012V58.12H7.712ZM11.492 58.12L11.5612 57.4234L11.5267 57.42H11.492V58.12ZM14.168 59.62L13.605 60.0359L13.6068 60.0384L14.168 59.62ZM14.6 64.936L15.2172 65.2662L14.6 64.936ZM13.976 61.984L13.2789 62.0481L13.2806 62.0656L13.283 62.083L13.976 61.984ZM13.16 60.136L12.6346 60.5986L12.6385 60.603L13.16 60.136ZM11.42 59.104L11.571 58.4205L11.4964 58.404H11.42V59.104ZM8.756 59.104V58.404H8.056V59.104H8.756ZM8.756 66.04H8.056V66.74H8.756V66.04ZM13.208 64.96L12.6465 64.542L13.208 64.96ZM12.932 66.508L12.6254 65.8787C12.3483 66.0137 12.0752 66.1184 11.806 66.1943L11.996 66.868L12.186 67.5417C12.5408 67.4416 12.8917 67.3063 13.2386 67.1373L12.932 66.508ZM11.996 66.868L11.806 66.1943C11.5517 66.266 11.3076 66.3 11.072 66.3V67V67.7C11.4444 67.7 11.8163 67.646 12.186 67.5417L11.996 66.868ZM11.072 67V66.3H7.712V67V67.7H11.072V67ZM7.712 67H8.412V58.12H7.712H7.012V67H7.712ZM7.712 58.12V58.82H11.492V58.12V57.42H7.712V58.12ZM11.492 58.12L11.4228 58.8166C12.3599 58.9096 13.0701 59.3118 13.605 60.0359L14.168 59.62L14.731 59.2041C13.9539 58.1522 12.8801 57.5544 11.5612 57.4234L11.492 58.12ZM14.168 59.62L13.6068 60.0384C14.1694 60.793 14.452 61.6531 14.452 62.644H15.152H15.852C15.852 61.3629 15.4786 60.207 14.7292 59.2016L14.168 59.62ZM15.152 62.644H14.452C14.452 63.3779 14.2923 64.0271 13.9828 64.6058L14.6 64.936L15.2172 65.2662C15.6437 64.4689 15.852 63.5901 15.852 62.644H15.152ZM14.6 64.936L13.9828 64.6058C13.6888 65.1554 13.2463 65.5783 12.6271 65.8779L12.932 66.508L13.2369 67.1381C14.1057 66.7177 14.7752 66.0926 15.2172 65.2662L14.6 64.936ZM13.976 61.984L14.6731 61.9199C14.5949 61.0696 14.2586 60.3134 13.6815 59.669L13.16 60.136L12.6385 60.603C13.0214 61.0306 13.2291 61.5064 13.2789 62.0481L13.976 61.984ZM13.16 60.136L13.6853 59.6734C13.1166 59.0275 12.4062 58.605 11.571 58.4205L11.42 59.104L11.269 59.7875C11.8098 59.907 12.2594 60.1725 12.6347 60.5986L13.16 60.136ZM11.42 59.104V58.404H8.756V59.104V59.804H11.42V59.104ZM8.756 59.104H8.056V66.04H8.756H9.456V59.104H8.756ZM8.756 66.04V66.74H11.048V66.04V65.34H8.756V66.04ZM11.048 66.04V66.74C12.1713 66.74 13.1003 66.2769 13.7695 65.378L13.208 64.96L12.6465 64.542C12.2437 65.0831 11.7327 65.34 11.048 65.34V66.04ZM13.208 64.96L13.7695 65.378C14.3978 64.534 14.712 63.5666 14.712 62.5H14.012H13.312C13.312 63.2734 13.0902 63.946 12.6465 64.542L13.208 64.96ZM14.012 62.5H14.712C14.712 62.2921 14.6978 62.087 14.669 61.885L13.976 61.984L13.283 62.083C13.3022 62.217 13.312 62.3559 13.312 62.5H14.012ZM25.292 67V67.7H25.992V67H25.292ZM20.468 67H19.768V67.7H20.468V67ZM20.468 58.12V57.42H19.768V58.12H20.468ZM25.292 58.12H25.992V57.42H25.292V58.12ZM25.292 59.08V59.78H25.992V59.08H25.292ZM21.56 59.08V58.38H20.86V59.08H21.56ZM21.56 61.708H20.86V62.408H21.56V61.708ZM25.292 61.708H25.992V61.008H25.292V61.708ZM25.292 62.62V63.32H25.992V62.62H25.292ZM21.536 62.62V61.92H20.836V62.62H21.536ZM21.536 66.04H20.836V66.74H21.536V66.04ZM25.292 66.04H25.992V65.34H25.292V66.04ZM25.292 67V66.3H20.468V67V67.7H25.292V67ZM20.468 67H21.168V58.12H20.468H19.768V67H20.468ZM20.468 58.12V58.82H25.292V58.12V57.42H20.468V58.12ZM25.292 58.12H24.592V59.08H25.292H25.992V58.12H25.292ZM25.292 59.08V58.38H21.56V59.08V59.78H25.292V59.08ZM21.56 59.08H20.86V61.708H21.56H22.26V59.08H21.56ZM21.56 61.708V62.408H25.292V61.708V61.008H21.56V61.708ZM25.292 61.708H24.592V62.62H25.292H25.992V61.708H25.292ZM25.292 62.62V61.92H21.536V62.62V63.32H25.292V62.62ZM21.536 62.62H20.836V66.04H21.536H22.236V62.62H21.536ZM21.536 66.04V66.74H25.292V66.04V65.34H21.536V66.04ZM25.292 66.04H24.592V67H25.292H25.992V66.04H25.292ZM38.708 58.12L39.3571 58.382L39.7454 57.42H38.708V58.12ZM35.012 67.276V67.976H35.4843L35.6611 67.538L35.012 67.276ZM34.688 67.276L34.0383 67.5366L34.2145 67.976H34.688V67.276ZM31.016 58.12V57.42H29.9811L30.3663 58.3806L31.016 58.12ZM32.24 58.12L32.8978 57.8805L32.7301 57.42H32.24V58.12ZM34.892 65.404L34.2342 65.6435L34.895 67.4583L35.5505 65.6416L34.892 65.404ZM37.52 58.12V57.42H37.0284L36.8615 57.8824L37.52 58.12ZM38.708 58.12L38.0589 57.858L34.3629 67.014L35.012 67.276L35.6611 67.538L39.3571 58.382L38.708 58.12ZM35.012 67.276V66.576H34.688V67.276V67.976H35.012V67.276ZM34.688 67.276L35.3377 67.0154L31.6657 57.8594L31.016 58.12L30.3663 58.3806L34.0383 67.5366L34.688 67.276ZM31.016 58.12V58.82H32.24V58.12V57.42H31.016V58.12ZM32.24 58.12L31.5822 58.3595L34.2342 65.6435L34.892 65.404L35.5498 65.1645L32.8978 57.8805L32.24 58.12ZM34.892 65.404L35.5505 65.6416L38.1785 58.3576L37.52 58.12L36.8615 57.8824L34.2335 65.1664L34.892 65.404ZM37.52 58.12V58.82H38.708V58.12V57.42H37.52V58.12Z" fill="white" mask="url(#path-3-outside-2_25_101)"/>
</svg>
