<svg width="98" height="98" viewBox="0 0 98 98" fill="none" xmlns="http://www.w3.org/2000/svg">
<g clip-path="url(#clip0_25_114)">
<rect width="98" height="98" fill="#E01F1E"/>
<mask id="path-1-outside-1_25_114" maskUnits="userSpaceOnUse" x="-2" y="77" width="102" height="24" fill="black">
<rect fill="white" x="-2" y="77" width="102" height="24"/>
<path d="M17.268 99.448H16.764L1.644 82.816V99H-0.68V77.776H-0.0919997L14.888 94.408V78.28H17.268V99.448ZM41.348 99H30.092V78.28H41.348V80.52H32.64V86.652H41.348V88.78H32.584V96.76H41.348V99ZM69.348 99H58.092V78.28H69.348V80.52H60.64V86.652H69.348V88.78H60.584V96.76H69.348V99ZM99.14 80.464H93.176V99H90.6V80.464H84.636V78.28H99.14V80.464Z"/>
</mask>
<path d="M17.268 99.448H16.764L1.644 82.816V99H-0.68V77.776H-0.0919997L14.888 94.408V78.28H17.268V99.448ZM41.348 99H30.092V78.28H41.348V80.52H32.64V86.652H41.348V88.78H32.584V96.76H41.348V99ZM69.348 99H58.092V78.28H69.348V80.52H60.64V86.652H69.348V88.78H60.584V96.76H69.348V99ZM99.14 80.464H93.176V99H90.6V80.464H84.636V78.28H99.14V80.464Z" fill="white"/>
<path d="M17.268 99.448V100.148H17.968V99.448H17.268ZM16.764 99.448L16.246 99.9189L16.4543 100.148H16.764V99.448ZM1.644 82.816L2.16196 82.3451L0.944 81.0054V82.816H1.644ZM1.644 99V99.7H2.344V99H1.644ZM-0.68 99H-1.38V99.7H-0.68V99ZM-0.68 77.776V77.076H-1.38V77.776H-0.68ZM-0.0919995 77.776L0.428132 77.3075L0.219598 77.076H-0.0919995V77.776ZM14.888 94.408L14.3679 94.8765L15.588 96.2312V94.408H14.888ZM14.888 78.28V77.58H14.188V78.28H14.888ZM17.268 78.28H17.968V77.58H17.268V78.28ZM17.268 99.448V98.748H16.764V99.448V100.148H17.268V99.448ZM16.764 99.448L17.282 98.9771L2.16196 82.3451L1.644 82.816L1.12604 83.2869L16.246 99.9189L16.764 99.448ZM1.644 82.816H0.944V99H1.644H2.344V82.816H1.644ZM1.644 99V98.3H-0.68V99V99.7H1.644V99ZM-0.68 99H0.0200005V77.776H-0.68H-1.38V99H-0.68ZM-0.68 77.776V78.476H-0.0919995V77.776V77.076H-0.68V77.776ZM-0.0919995 77.776L-0.612132 78.2445L14.3679 94.8765L14.888 94.408L15.4081 93.9395L0.428132 77.3075L-0.0919995 77.776ZM14.888 94.408H15.588V78.28H14.888H14.188V94.408H14.888ZM14.888 78.28V78.98H17.268V78.28V77.58H14.888V78.28ZM17.268 78.28H16.568V99.448H17.268H17.968V78.28H17.268ZM41.348 99V99.7H42.048V99H41.348ZM30.092 99H29.392V99.7H30.092V99ZM30.092 78.28V77.58H29.392V78.28H30.092ZM41.348 78.28H42.048V77.58H41.348V78.28ZM41.348 80.52V81.22H42.048V80.52H41.348ZM32.64 80.52V79.82H31.94V80.52H32.64ZM32.64 86.652H31.94V87.352H32.64V86.652ZM41.348 86.652H42.048V85.952H41.348V86.652ZM41.348 88.78V89.48H42.048V88.78H41.348ZM32.584 88.78V88.08H31.884V88.78H32.584ZM32.584 96.76H31.884V97.46H32.584V96.76ZM41.348 96.76H42.048V96.06H41.348V96.76ZM41.348 99V98.3H30.092V99V99.7H41.348V99ZM30.092 99H30.792V78.28H30.092H29.392V99H30.092ZM30.092 78.28V78.98H41.348V78.28V77.58H30.092V78.28ZM41.348 78.28H40.648V80.52H41.348H42.048V78.28H41.348ZM41.348 80.52V79.82H32.64V80.52V81.22H41.348V80.52ZM32.64 80.52H31.94V86.652H32.64H33.34V80.52H32.64ZM32.64 86.652V87.352H41.348V86.652V85.952H32.64V86.652ZM41.348 86.652H40.648V88.78H41.348H42.048V86.652H41.348ZM41.348 88.78V88.08H32.584V88.78V89.48H41.348V88.78ZM32.584 88.78H31.884V96.76H32.584H33.284V88.78H32.584ZM32.584 96.76V97.46H41.348V96.76V96.06H32.584V96.76ZM41.348 96.76H40.648V99H41.348H42.048V96.76H41.348ZM69.348 99V99.7H70.048V99H69.348ZM58.092 99H57.392V99.7H58.092V99ZM58.092 78.28V77.58H57.392V78.28H58.092ZM69.348 78.28H70.048V77.58H69.348V78.28ZM69.348 80.52V81.22H70.048V80.52H69.348ZM60.64 80.52V79.82H59.94V80.52H60.64ZM60.64 86.652H59.94V87.352H60.64V86.652ZM69.348 86.652H70.048V85.952H69.348V86.652ZM69.348 88.78V89.48H70.048V88.78H69.348ZM60.584 88.78V88.08H59.884V88.78H60.584ZM60.584 96.76H59.884V97.46H60.584V96.76ZM69.348 96.76H70.048V96.06H69.348V96.76ZM69.348 99V98.3H58.092V99V99.7H69.348V99ZM58.092 99H58.792V78.28H58.092H57.392V99H58.092ZM58.092 78.28V78.98H69.348V78.28V77.58H58.092V78.28ZM69.348 78.28H68.648V80.52H69.348H70.048V78.28H69.348ZM69.348 80.52V79.82H60.64V80.52V81.22H69.348V80.52ZM60.64 80.52H59.94V86.652H60.64H61.34V80.52H60.64ZM60.64 86.652V87.352H69.348V86.652V85.952H60.64V86.652ZM69.348 86.652H68.648V88.78H69.348H70.048V86.652H69.348ZM69.348 88.78V88.08H60.584V88.78V89.48H69.348V88.78ZM60.584 88.78H59.884V96.76H60.584H61.284V88.78H60.584ZM60.584 96.76V97.46H69.348V96.76V96.06H60.584V96.76ZM69.348 96.76H68.648V99H69.348H70.048V96.76H69.348ZM99.14 80.464V81.164H99.84V80.464H99.14ZM93.176 80.464V79.764H92.476V80.464H93.176ZM93.176 99V99.7H93.876V99H93.176ZM90.6 99H89.9V99.7H90.6V99ZM90.6 80.464H91.3V79.764H90.6V80.464ZM84.636 80.464H83.936V81.164H84.636V80.464ZM84.636 78.28V77.58H83.936V78.28H84.636ZM99.14 78.28H99.84V77.58H99.14V78.28ZM99.14 80.464V79.764H93.176V80.464V81.164H99.14V80.464ZM93.176 80.464H92.476V99H93.176H93.876V80.464H93.176ZM93.176 99V98.3H90.6V99V99.7H93.176V99ZM90.6 99H91.3V80.464H90.6H89.9V99H90.6ZM90.6 80.464V79.764H84.636V80.464V81.164H90.6V80.464ZM84.636 80.464H85.336V78.28H84.636H83.936V80.464H84.636ZM84.636 78.28V78.98H99.14V78.28V77.58H84.636V78.28ZM99.14 78.28H98.44V80.464H99.14H99.84V78.28H99.14Z" fill="white" mask="url(#path-1-outside-1_25_114)"/>
<mask id="path-3-outside-2_25_114" maskUnits="userSpaceOnUse" x="-1" y="58" width="33" height="11" fill="black">
<rect fill="white" x="-1" y="58" width="33" height="11"/>
<path d="M4.932 67.508C4.62 67.66 4.308 67.78 3.996 67.868C3.684 67.956 3.376 68 3.072 68H-0.288V59.12H3.492C4.62 59.232 5.512 59.732 6.168 60.62C6.824 61.5 7.152 62.508 7.152 63.644C7.152 64.484 6.968 65.248 6.6 65.936C6.232 66.624 5.676 67.148 4.932 67.508ZM5.976 62.984C5.912 62.288 5.64 61.672 5.16 61.136C4.688 60.6 4.108 60.256 3.42 60.104H0.756V67.04H3.048C3.952 67.04 4.672 66.68 5.208 65.96C5.744 65.24 6.012 64.42 6.012 63.5C6.012 63.324 6 63.152 5.976 62.984ZM17.292 68H12.468V59.12H17.292V60.08H13.56V62.708H17.292V63.62H13.536V67.04H17.292V68ZM30.708 59.12L27.012 68.276H26.688L23.016 59.12H24.24L26.892 66.404L29.52 59.12H30.708Z"/>
</mask>
<path d="M4.932 67.508C4.62 67.66 4.308 67.78 3.996 67.868C3.684 67.956 3.376 68 3.072 68H-0.288V59.12H3.492C4.62 59.232 5.512 59.732 6.168 60.62C6.824 61.5 7.152 62.508 7.152 63.644C7.152 64.484 6.968 65.248 6.6 65.936C6.232 66.624 5.676 67.148 4.932 67.508ZM5.976 62.984C5.912 62.288 5.64 61.672 5.16 61.136C4.688 60.6 4.108 60.256 3.42 60.104H0.756V67.04H3.048C3.952 67.04 4.672 66.68 5.208 65.96C5.744 65.24 6.012 64.42 6.012 63.5C6.012 63.324 6 63.152 5.976 62.984ZM17.292 68H12.468V59.12H17.292V60.08H13.56V62.708H17.292V63.62H13.536V67.04H17.292V68ZM30.708 59.12L27.012 68.276H26.688L23.016 59.12H24.24L26.892 66.404L29.52 59.12H30.708Z" fill="white"/>
<path d="M4.932 67.508L4.62711 66.8779L4.62542 66.8787L4.932 67.508ZM3.996 67.868L3.80598 67.1943L3.80598 67.1943L3.996 67.868ZM-0.288 68H-0.988V68.7H-0.288V68ZM-0.288 59.12V58.42H-0.988V59.12H-0.288ZM3.492 59.12L3.56116 58.4234L3.52667 58.42H3.492V59.12ZM6.168 60.62L5.60497 61.0359L5.60678 61.0384L6.168 60.62ZM6.6 65.936L7.21725 66.2662L7.21725 66.2662L6.6 65.936ZM5.976 62.984L5.27894 63.0481L5.28055 63.0656L5.28304 63.083L5.976 62.984ZM5.16 61.136L4.63464 61.5986L4.63853 61.603L5.16 61.136ZM3.42 60.104L3.57101 59.4205L3.4964 59.404H3.42V60.104ZM0.756 60.104V59.404H0.0560003V60.104H0.756ZM0.756 67.04H0.0560003V67.74H0.756V67.04ZM5.208 65.96L4.64651 65.542L4.64651 65.542L5.208 65.96ZM4.932 67.508L4.62542 66.8787C4.34826 67.0137 4.07518 67.1184 3.80598 67.1943L3.996 67.868L4.18602 68.5417C4.54082 68.4416 4.89174 68.3063 5.23858 68.1373L4.932 67.508ZM3.996 67.868L3.80598 67.1943C3.55172 67.266 3.30764 67.3 3.072 67.3V68V68.7C3.44437 68.7 3.81628 68.646 4.18602 68.5417L3.996 67.868ZM3.072 68V67.3H-0.288V68V68.7H3.072V68ZM-0.288 68H0.412V59.12H-0.288H-0.988V68H-0.288ZM-0.288 59.12V59.82H3.492V59.12V58.42H-0.288V59.12ZM3.492 59.12L3.42284 59.8166C4.35994 59.9096 5.07006 60.3118 5.60497 61.0359L6.168 60.62L6.73103 60.2041C5.95394 59.1522 4.88006 58.5544 3.56116 58.4234L3.492 59.12ZM6.168 60.62L5.60678 61.0384C6.16935 61.793 6.452 62.6531 6.452 63.644H7.152H7.852C7.852 62.3629 7.47865 61.207 6.72922 60.2016L6.168 60.62ZM7.152 63.644H6.452C6.452 64.3779 6.29231 65.0271 5.98275 65.6058L6.6 65.936L7.21725 66.2662C7.64369 65.4689 7.852 64.5901 7.852 63.644H7.152ZM6.6 65.936L5.98275 65.6058C5.68882 66.1554 5.2463 66.5783 4.62711 66.8779L4.932 67.508L5.23689 68.1381C6.1057 67.7177 6.77518 67.0926 7.21725 66.2662L6.6 65.936ZM5.976 62.984L6.67306 62.9199C6.59487 62.0696 6.25856 61.3134 5.68147 60.669L5.16 61.136L4.63853 61.603C5.02144 62.0306 5.22913 62.5064 5.27894 63.0481L5.976 62.984ZM5.16 61.136L5.68534 60.6734C5.11661 60.0275 4.40618 59.605 3.57101 59.4205L3.42 60.104L3.26899 60.7875C3.80982 60.907 4.25939 61.1725 4.63466 61.5986L5.16 61.136ZM3.42 60.104V59.404H0.756V60.104V60.804H3.42V60.104ZM0.756 60.104H0.0560003V67.04H0.756H1.456V60.104H0.756ZM0.756 67.04V67.74H3.048V67.04V66.34H0.756V67.04ZM3.048 67.04V67.74C4.17134 67.74 5.10029 67.2769 5.76949 66.378L5.208 65.96L4.64651 65.542C4.24371 66.0831 3.73266 66.34 3.048 66.34V67.04ZM5.208 65.96L5.76949 66.378C6.39781 65.534 6.712 64.5666 6.712 63.5H6.012H5.312C5.312 64.2734 5.09019 64.946 4.64651 65.542L5.208 65.96ZM6.012 63.5H6.712C6.712 63.2921 6.69782 63.087 6.66896 62.885L5.976 62.984L5.28304 63.083C5.30218 63.217 5.312 63.3559 5.312 63.5H6.012ZM17.292 68V68.7H17.992V68H17.292ZM12.468 68H11.768V68.7H12.468V68ZM12.468 59.12V58.42H11.768V59.12H12.468ZM17.292 59.12H17.992V58.42H17.292V59.12ZM17.292 60.08V60.78H17.992V60.08H17.292ZM13.56 60.08V59.38H12.86V60.08H13.56ZM13.56 62.708H12.86V63.408H13.56V62.708ZM17.292 62.708H17.992V62.008H17.292V62.708ZM17.292 63.62V64.32H17.992V63.62H17.292ZM13.536 63.62V62.92H12.836V63.62H13.536ZM13.536 67.04H12.836V67.74H13.536V67.04ZM17.292 67.04H17.992V66.34H17.292V67.04ZM17.292 68V67.3H12.468V68V68.7H17.292V68ZM12.468 68H13.168V59.12H12.468H11.768V68H12.468ZM12.468 59.12V59.82H17.292V59.12V58.42H12.468V59.12ZM17.292 59.12H16.592V60.08H17.292H17.992V59.12H17.292ZM17.292 60.08V59.38H13.56V60.08V60.78H17.292V60.08ZM13.56 60.08H12.86V62.708H13.56H14.26V60.08H13.56ZM13.56 62.708V63.408H17.292V62.708V62.008H13.56V62.708ZM17.292 62.708H16.592V63.62H17.292H17.992V62.708H17.292ZM17.292 63.62V62.92H13.536V63.62V64.32H17.292V63.62ZM13.536 63.62H12.836V67.04H13.536H14.236V63.62H13.536ZM13.536 67.04V67.74H17.292V67.04V66.34H13.536V67.04ZM17.292 67.04H16.592V68H17.292H17.992V67.04H17.292ZM30.708 59.12L31.3571 59.382L31.7454 58.42H30.708V59.12ZM27.012 68.276V68.976H27.4843L27.6611 68.538L27.012 68.276ZM26.688 68.276L26.0383 68.5366L26.2145 68.976H26.688V68.276ZM23.016 59.12V58.42H21.9811L22.3663 59.3806L23.016 59.12ZM24.24 59.12L24.8978 58.8805L24.7301 58.42H24.24V59.12ZM26.892 66.404L26.2342 66.6435L26.895 68.4583L27.5505 66.6416L26.892 66.404ZM29.52 59.12V58.42H29.0284L28.8615 58.8824L29.52 59.12ZM30.708 59.12L30.0589 58.858L26.3629 68.014L27.012 68.276L27.6611 68.538L31.3571 59.382L30.708 59.12ZM27.012 68.276V67.576H26.688V68.276V68.976H27.012V68.276ZM26.688 68.276L27.3377 68.0154L23.6657 58.8594L23.016 59.12L22.3663 59.3806L26.0383 68.5366L26.688 68.276ZM23.016 59.12V59.82H24.24V59.12V58.42H23.016V59.12ZM24.24 59.12L23.5822 59.3595L26.2342 66.6435L26.892 66.404L27.5498 66.1645L24.8978 58.8805L24.24 59.12ZM26.892 66.404L27.5505 66.6416L30.1785 59.3576L29.52 59.12L28.8615 58.8824L26.2335 66.1664L26.892 66.404ZM29.52 59.12V59.82H30.708V59.12V58.42H29.52V59.12Z" fill="white" mask="url(#path-3-outside-2_25_114)"/>
</g>
<defs>
<clipPath id="clip0_25_114">
<rect width="98" height="98" fill="white"/>
</clipPath>
</defs>
</svg>
