<svg width="235" height="46" viewBox="0 0 235 46" fill="none" xmlns="http://www.w3.org/2000/svg">
<path d="M20.81 35.2C19.93 35.63 19.05 36 18.16 36.22C17.2467 36.46 16.3733 36.5867 15.54 36.6H6V11.4H16.73C19.93 11.7133 22.46 13.13 24.32 15.65C26.18 18.15 27.11 21.0133 27.11 24.24C27.11 26.62 26.59 28.7867 25.55 30.74C24.5033 32.6933 22.9233 34.18 20.81 35.2ZM23.78 22.36C23.5933 20.3867 22.82 18.64 21.46 17.12C20.12 15.6 18.4733 14.6233 16.52 14.19H8.96V33.87H15.47C18.0367 33.87 20.08 32.85 21.6 30.81C23.12 28.7633 23.88 26.4367 23.88 23.83C23.88 23.33 23.8467 22.84 23.78 22.36ZM55.89 36.6H42.2V21.57H45.3V21.58H55.89V24.17H45.23V33.87H55.89V36.6ZM42.2 11.4H55.89V14.13H45.3V14.15H42.2V11.4ZM93.97 11.4L83.48 37.38L83.02 38.47L82.56 37.38L72.14 11.4H75.61L83.1 31.33L90.59 11.4H93.97ZM128.78 37.82L128.17 37.14L109.78 16.91V36.6H106.95V10L107.66 10.78L125.88 31.01V11.4H128.78V37.82ZM158.07 36.6H144.38V33.87H147.41H158.07V36.6ZM144.38 11.4H158.07V14.12H147.47H144.38V11.4ZM192.12 36.61H178.43V33.88H181.46H192.12V36.61ZM178.43 11.41H192.12V14.13H181.53V21.59H192.12V24.17H178.43V11.41ZM228.36 14.07H221.1V36.61H217.97V14.07H210.72V11.41H228.36V14.07ZM144.38 24.18V21.6H158.07V24.18H144.38Z" fill="black"/>
</svg>
