<svg width="235" height="38" viewBox="0 0 235 38" fill="none" xmlns="http://www.w3.org/2000/svg">
<path d="M21.8099 30.44C20.9299 30.8667 20.0532 31.2033 19.1799 31.45C18.2999 31.6967 17.4332 31.82 16.5799 31.82H7.12988V6.84999H17.7599C20.9332 7.16332 23.4399 8.56999 25.2799 11.07C27.1266 13.5433 28.0499 16.3767 28.0499 19.57C28.0499 21.9367 27.5332 24.0867 26.4999 26.02C25.4665 27.9533 23.9032 29.4267 21.8099 30.44ZM24.7399 17.72C24.5599 15.76 23.7966 14.0267 22.4499 12.52C21.1232 11.0133 19.4932 10.0467 17.5599 9.61999H10.0599V29.12H16.5099C19.0499 29.12 21.0732 28.11 22.5799 26.09C24.0932 24.0633 24.8499 21.7567 24.8499 19.17C24.8499 18.6767 24.8132 18.1933 24.7399 17.72ZM56.5699 31.82H42.9999V6.84999H56.5699V9.54999H46.0699V16.94H56.5699V19.51H46.0099V29.12H56.5699V31.82ZM94.2999 6.84999L83.8999 32.6H82.9899L72.6699 6.84999H76.1099L83.5699 27.34L90.9599 6.84999H94.2999ZM128.79 32.36H128.18L109.96 12.32V31.82H107.16V6.23999H107.86L125.92 26.29V6.84999H128.79V32.36ZM157.81 31.82H144.24V6.84999H157.81V9.54999H147.31V16.94H157.81V19.5H147.25V29.12H157.81V31.82ZM191.56 31.82H177.99V6.84999H191.56V9.54999H181.06V16.94H191.56V19.5H180.99V29.12H191.56V31.82ZM227.47 9.47999H220.28V31.82H217.17V9.47999H209.98V6.84999H227.47V9.47999Z" fill="black"/>
<path d="M21.7 30.5C20.82 30.93 19.95 31.29 19.06 31.52C18.1533 31.7533 17.2867 31.8767 16.46 31.89H7V6.89H17.64C20.82 7.20333 23.3333 8.61 25.18 11.11C27.0267 13.59 27.95 16.4267 27.95 19.62C27.95 21.9867 27.43 24.14 26.39 26.08C25.3567 28.0133 23.7933 29.4867 21.7 30.5ZM24.64 17.76C24.46 15.8067 23.6933 14.0733 22.34 12.56C21.0133 11.0533 19.38 10.0867 17.44 9.66H9.94V29.18H16.39C18.9367 29.18 20.9633 28.1667 22.47 26.14C23.9833 24.1133 24.74 21.8067 24.74 19.22C24.74 18.72 24.7067 18.2333 24.64 17.76ZM56.5 31.89H42.92V16.98H45.99V16.99H56.5V19.56H45.92V29.18H56.5V31.89ZM42.92 6.89H56.5V9.6H45.99V9.62H42.92V6.89ZM94.27 6.89L83.86 32.66L83.41 33.75L82.95 32.66L72.61 6.89H76.06L83.49 27.03L90.93 6.89H94.27ZM128.8 32.43H128.19L109.94 12.36V31.89H107.14V5.5L107.85 6.28L125.92 26.35V6.89H128.8V32.43ZM157.85 31.88H144.27V29.18H147.28H157.85V31.88ZM144.27 6.88H157.85V9.58H147.35H144.27V6.88ZM191.64 31.88H178.06V29.18H181.06H191.64V31.88ZM178.06 6.88H191.64V9.58H181.13V16.98H191.64V19.54H178.06V6.88ZM227.59 9.52H220.39V31.88H217.28V9.52H210.09V6.88H227.59V9.52ZM144.27 19.55V16.99H157.85V19.55H144.27Z" fill="black"/>
<mask id="mask0_40_201" style="mask-type:alpha" maskUnits="userSpaceOnUse" x="7" y="5" width="221" height="29">
<path d="M21.8099 30.44C20.9299 30.8667 20.0532 31.2033 19.1799 31.45C18.2999 31.6967 17.4332 31.82 16.5799 31.82H7.12988V6.84999H17.7599C20.9332 7.16332 23.4399 8.56999 25.2799 11.07C27.1266 13.5433 28.0499 16.3767 28.0499 19.57C28.0499 21.9367 27.5332 24.0867 26.4999 26.02C25.4665 27.9533 23.9032 29.4267 21.8099 30.44ZM24.7399 17.72C24.5599 15.76 23.7966 14.0267 22.4499 12.52C21.1232 11.0133 19.4932 10.0467 17.5599 9.61999H10.0599V29.12H16.5099C19.0499 29.12 21.0732 28.11 22.5799 26.09C24.0932 24.0633 24.8499 21.7567 24.8499 19.17C24.8499 18.6767 24.8132 18.1933 24.7399 17.72ZM56.5699 31.82H42.9999V6.84999H56.5699V9.54999H46.0699V16.94H56.5699V19.51H46.0099V29.12H56.5699V31.82ZM94.2999 6.84999L83.8999 32.6H82.9899L72.6699 6.84999H76.1099L83.5699 27.34L90.9599 6.84999H94.2999ZM128.79 32.36H128.18L109.96 12.32V31.82H107.16V6.23999H107.86L125.92 26.29V6.84999H128.79V32.36ZM157.81 31.82H144.24V6.84999H157.81V9.54999H147.31V16.94H157.81V19.5H147.25V29.12H157.81V31.82ZM191.56 31.82H177.99V6.84999H191.56V9.54999H181.06V16.94H191.56V19.5H180.99V29.12H191.56V31.82ZM227.47 9.47999H220.28V31.82H217.17V9.47999H209.98V6.84999H227.47V9.47999Z" fill="black"/>
<path d="M21.7 30.5C20.82 30.93 19.95 31.29 19.06 31.52C18.1533 31.7533 17.2867 31.8767 16.46 31.89H7V6.89H17.64C20.82 7.20333 23.3333 8.61 25.18 11.11C27.0267 13.59 27.95 16.4267 27.95 19.62C27.95 21.9867 27.43 24.14 26.39 26.08C25.3567 28.0133 23.7933 29.4867 21.7 30.5ZM24.64 17.76C24.46 15.8067 23.6933 14.0733 22.34 12.56C21.0133 11.0533 19.38 10.0867 17.44 9.66H9.94V29.18H16.39C18.9367 29.18 20.9633 28.1667 22.47 26.14C23.9833 24.1133 24.74 21.8067 24.74 19.22C24.74 18.72 24.7067 18.2333 24.64 17.76ZM56.5 31.89H42.92V16.98H45.99V16.99H56.5V19.56H45.92V29.18H56.5V31.89ZM42.92 6.89H56.5V9.6H45.99V9.62H42.92V6.89ZM94.27 6.89L83.86 32.66L83.41 33.75L82.95 32.66L72.61 6.89H76.06L83.49 27.03L90.93 6.89H94.27ZM128.8 32.43H128.19L109.94 12.36V31.89H107.14V5.5L107.85 6.28L125.92 26.35V6.89H128.8V32.43ZM157.85 31.88H144.27V29.18H147.28H157.85V31.88ZM144.27 6.88H157.85V9.58H147.35H144.27V6.88ZM191.64 31.88H178.06V29.18H181.06H191.64V31.88ZM178.06 6.88H191.64V9.58H181.13V16.98H191.64V19.54H178.06V6.88ZM227.59 9.52H220.39V31.88H217.28V9.52H210.09V6.88H227.59V9.52ZM144.27 19.55V16.99H157.85V19.55H144.27Z" fill="black"/>
</mask>
<g mask="url(#mask0_40_201)">
<rect x="5" width="90" height="36" fill="#EB1414"/>
</g>
</svg>
