<svg version="1.2" xmlns="http://www.w3.org/2000/svg" viewBox="0 15.000000000000005 235 37" width="235" height="38">
	<style>
		.s0 { fill: #000000 } 
	</style>
	<g id="Layer 1">
		<path class="s0" d="m21.81 44.94q-1.32 0.64-2.63 1.01-1.32 0.37-2.6 0.37h-9.45v-24.97h10.63q4.76 0.47 7.52 4.22 2.77 3.71 2.77 8.5 0 3.55-1.55 6.45-1.55 2.9-4.69 4.42zm2.93-12.72q-0.27-2.94-2.29-5.2-1.99-2.26-4.89-2.9h-7.5v19.5h6.45q3.81 0 6.07-3.03 2.27-3.04 2.27-6.92 0-0.74-0.11-1.45zm31.83 14.1h-13.57v-24.97h13.57v2.7h-10.5v7.39h10.5v2.57h-10.56v9.61h10.56zm37.73-24.97l-10.4 25.75h-0.91l-10.32-25.75h3.44l7.46 20.49 7.39-20.49zm34.49 25.51h-0.61l-18.22-20.04v19.5h-2.8v-25.58h0.7l18.06 20.05v-19.44h2.87zm29.02-0.54h-13.57v-24.97h13.57v2.7h-10.5v7.39h10.5v2.56h-10.56v9.62h10.56zm33.75 0h-13.57v-24.97h13.57v2.7h-10.5v7.39h10.5v2.56h-10.57v9.62h10.57zm35.91-22.34h-7.19v22.34h-3.11v-22.34h-7.19v-2.63h17.49z"/>
		<path class="s0" d="m21.7 45c-0.88 0.43-1.75 0.79-2.64 1.02q-1.36 0.35-2.6 0.37h-9.46v-25h10.64q4.77 0.47 7.54 4.22 2.77 3.72 2.77 8.51 0 3.55-1.56 6.46-1.55 2.9-4.69 4.42zm2.94-12.74q-0.27-2.93-2.3-5.2-1.99-2.26-4.9-2.9h-7.5v19.52h6.45q3.82 0 6.08-3.04 2.27-3.04 2.27-6.92 0-0.75-0.1-1.46zm31.86 14.13h-13.58v-14.91h3.07v0.01h10.51v2.57h-10.58v9.62h10.58zm-13.58-25h13.58v2.71h-10.51v0.02h-3.07zm51.35 0l-10.41 25.77-0.45 1.09-0.46-1.09-10.34-25.77h3.45l7.43 20.14 7.44-20.14zm34.53 25.54h-0.61l-18.25-20.07v19.53h-2.8v-26.39l0.71 0.78 18.07 20.07v-19.46h2.88zm29.05-0.55h-13.58v-2.7h3.01 10.57zm-13.58-25h13.58v2.7h-10.5-3.08zm47.37 25h-13.58v-2.7h3 10.58zm-13.58-25h13.58v2.7h-10.51v7.4h10.51v2.56h-13.58zm49.53 2.64h-7.2v22.36h-3.11v-22.36h-7.19v-2.64h17.5zm-83.32 10.03v-2.56h13.58v2.56z"/>
	</g>
</svg>